<?xml version="1.0" standalone="no"?>
<!DOCTYPE svg PUBLIC "-//W3C//DTD SVG 20010904//EN"
 "http://www.w3.org/TR/2001/REC-SVG-20010904/DTD/svg10.dtd">
<svg version="1.0" xmlns="http://www.w3.org/2000/svg"
 width="233.000000pt" height="216.000000pt" viewBox="0 0 233.000000 216.000000"
 preserveAspectRatio="xMidYMid meet">

<g transform="translate(0.000000,216.000000) scale(0.100000,-0.100000)"
fill="#000000" stroke="none">
<path d="M1000 1904 c-200 -34 -344 -99 -459 -208 -109 -103 -164 -245 -142
-368 33 -190 186 -346 414 -424 309 -105 660 -55 885 126 226 182 250 442 60
645 -93 100 -221 171 -379 211 -62 15 -324 28 -379 18z m331 -49 c132 -28 240
-80 337 -162 l52 -45 0 -193 c0 -223 11 -205 -122 -205 l-78 0 0 174 c0 185
-2 192 -49 179 -24 -6 -29 -23 -7 -23 20 0 30 -87 24 -217 -4 -86 -8 -108 -22
-119 -17 -12 -16 -13 3 -23 11 -6 56 -11 99 -11 75 0 80 -1 75 -20 -3 -11 0
-20 6 -20 6 0 11 6 11 14 0 16 50 59 58 51 3 -3 4 -28 3 -56 -1 -36 -7 -57
-19 -66 -9 -8 -11 -12 -4 -8 28 14 8 -6 -50 -53 -150 -118 -328 -169 -555
-159 -142 6 -219 25 -338 82 -88 43 -195 126 -195 153 0 7 -4 10 -10 7 -12 -8
-12 -23 -12 238 0 167 3 222 14 234 11 14 11 16 0 9 -24 -14 3 26 37 56 99 89
174 131 296 167 140 42 296 47 446 16z"/>
<path d="M952 1808 c-34 -34 -4 -135 80 -271 26 -43 48 -81 48 -83 0 -3 -35
-44 -78 -92 -79 -89 -133 -161 -146 -197 -9 -24 -3 -18 57 61 54 72 183 211
189 204 2 -3 36 -45 75 -95 90 -114 257 -277 312 -303 37 -18 32 -11 -52 69
-88 83 -230 245 -283 323 l-23 33 52 45 c73 62 144 108 178 115 29 6 33 0 30
-37 -1 -11 1 -10 9 3 15 24 9 61 -12 65 -29 6 -106 -36 -188 -103 -44 -36 -83
-65 -85 -65 -8 0 -57 82 -97 162 -23 47 -38 91 -38 113 0 37 1 38 33 32 17 -3
41 -8 52 -12 11 -4 2 5 -20 19 -44 28 -74 33 -93 14z"/>
<path d="M652 1603 c-10 -4 -7 -9 10 -17 23 -12 23 -13 23 -198 0 -204 -1
-207 -68 -248 -17 -11 -24 -20 -18 -24 6 -4 11 -3 11 1 0 5 15 14 34 21 18 7
45 23 60 37 25 23 26 29 26 120 l0 95 73 0 c115 0 167 37 167 120 0 47 -23 77
-68 90 -38 10 -226 13 -250 3z m211 -25 c28 -6 51 -18 57 -28 18 -34 11 -76
-16 -104 -24 -23 -34 -26 -100 -26 l-74 0 0 79 c0 55 4 81 13 84 23 7 72 6
120 -5z"/>
<path d="M1350 1509 c0 -5 5 -7 10 -4 6 3 10 8 10 11 0 2 -4 4 -10 4 -5 0 -10
-5 -10 -11z"/>
<path d="M1324 1468 l-19 -23 23 19 c21 18 27 26 19 26 -2 0 -12 -10 -23 -22z"/>
<path d="M926 771 c-3 -4 6 -31 20 -59 l26 -52 -36 -43 c-48 -59 -46 -67 4
-13 l40 44 67 -69 c36 -38 69 -69 73 -69 4 0 -21 30 -56 66 -35 36 -64 72 -64
78 0 20 37 49 51 40 7 -4 10 -3 6 3 -4 6 0 13 7 16 8 3 17 1 20 -6 3 -9 5 -9
5 0 1 17 -19 27 -31 15 -8 -8 -23 -1 -51 24 -39 33 -70 43 -81 25z m74 -31
l35 -30 -24 -21 -25 -20 -23 38 c-41 68 -22 85 37 33z"/>
<path d="M1128 678 c3 -51 0 -73 -10 -79 -10 -6 -8 -9 7 -9 18 0 20 5 17 72
-2 40 -7 76 -10 80 -4 4 -5 -25 -4 -64z"/>
<path d="M1243 730 c19 -28 22 -82 7 -111 -12 -21 -40 -25 -58 -7 -18 18 -15
94 4 112 8 9 11 16 5 16 -31 0 -43 -107 -15 -134 40 -40 84 -7 84 63 0 37 -5
52 -22 67 l-22 19 17 -25z"/>
<path d="M682 650 c0 -56 3 -87 7 -75 5 11 6 32 4 47 -3 19 1 28 14 31 16 4
16 5 1 6 -12 1 -18 12 -21 44 -2 23 -4 -1 -5 -53z"/>
<path d="M310 669 c0 -36 -4 -70 -10 -77 -5 -7 -3 -6 6 2 11 9 15 31 15 71 0
31 -2 59 -5 63 -3 3 -6 -24 -6 -59z"/>
<path d="M386 717 c3 -9 0 -25 -7 -34 -12 -14 -12 -16 1 -11 19 6 25 37 10 52
-8 8 -10 7 -4 -7z"/>
<path d="M428 665 l-3 -65 45 2 c44 1 44 1 8 5 -34 4 -38 7 -38 33 0 24 5 29
28 33 l27 4 -29 2 c-25 1 -28 4 -24 26 3 14 2 25 -3 25 -4 0 -9 -29 -11 -65z"/>
<path d="M566 678 c1 -29 -3 -59 -8 -65 -8 -10 -6 -13 6 -13 11 0 16 9 16 32
l0 32 29 -32 c36 -39 51 -43 21 -5 l-21 27 26 14 c27 14 32 53 7 58 -7 1 -8 0
-2 -3 16 -7 12 -40 -6 -47 -37 -14 -54 -7 -54 24 0 17 -3 30 -7 30 -5 0 -7
-24 -7 -52z"/>
<path d="M809 667 l-4 -67 42 0 c23 0 44 3 47 8 2 4 -13 6 -35 4 -38 -4 -39
-3 -39 26 0 26 4 31 28 35 l27 4 -27 2 c-21 1 -27 7 -30 29 -2 15 -6 -3 -9
-41z"/>
<path d="M1413 695 c0 -22 2 -30 4 -17 2 12 2 30 0 40 -3 9 -5 -1 -4 -23z"/>
<path d="M1535 670 c0 -33 3 -60 8 -60 4 0 7 13 7 29 0 23 5 31 23 34 l22 4
-22 2 c-17 1 -23 7 -23 26 0 14 -3 25 -7 25 -5 0 -8 -27 -8 -60z"/>
<path d="M1678 720 c-34 -20 -35 -102 -1 -115 15 -5 15 -4 0 13 -23 25 -21 54
4 86 22 28 22 30 -3 16z"/>
<path d="M1830 670 c-17 -33 -26 -60 -20 -60 5 0 12 11 16 25 3 14 10 25 16
25 5 0 7 3 4 8 -2 4 2 15 9 25 13 18 14 18 24 -1 9 -17 8 -21 -7 -25 -13 -4
-13 -5 4 -6 14 -1 26 -12 34 -30 6 -16 21 -38 33 -48 l21 -18 -21 30 c-11 17
-32 54 -47 83 -14 28 -28 52 -31 52 -3 0 -18 -27 -35 -60z"/>
<path d="M1970 668 l-5 -66 38 -4 c21 -2 42 1 47 7 6 7 -4 9 -30 7 l-39 -4 -3
63 -3 64 -5 -67z"/>
<path d="M738 653 c7 -3 16 -2 19 1 4 3 -2 6 -13 5 -11 0 -14 -3 -6 -6z"/>
<path d="M1761 645 c0 -12 -5 -26 -11 -33 -5 -7 -3 -6 6 2 9 7 14 22 11 32 -4
17 -5 17 -6 -1z"/>
<path d="M1408 623 c-5 -19 -1 -22 34 -25 22 -2 42 0 44 4 3 4 -11 8 -30 8
-25 0 -36 5 -38 18 -3 14 -5 13 -10 -5z"/>
<path d="M1708 593 c7 -3 16 -2 19 1 4 3 -2 6 -13 5 -11 0 -14 -3 -6 -6z"/>
<path d="M710 473 c0 -20 22 -73 30 -73 5 0 2 17 -7 38 -17 41 -23 50 -23 35z"/>
<path d="M1240 473 c0 -20 22 -73 30 -73 5 0 2 17 -7 38 -17 41 -23 50 -23 35z"/>
<path d="M1383 440 c0 -25 2 -35 4 -22 2 12 2 32 0 45 -2 12 -4 2 -4 -23z"/>
<path d="M772 430 c0 -19 2 -27 5 -17 2 9 2 25 0 35 -3 9 -5 1 -5 -18z"/>
<path d="M800 430 c0 -16 4 -30 8 -30 5 0 7 14 4 30 -2 17 -6 30 -8 30 -2 0
-4 -13 -4 -30z"/>
<path d="M1302 430 c0 -19 2 -27 5 -17 2 9 2 25 0 35 -3 9 -5 1 -5 -18z"/>
<path d="M901 423 c1 -22 2 -23 6 -8 3 11 10 23 17 27 7 5 5 8 -6 8 -13 0 -18
-7 -17 -27z"/>
<path d="M940 425 c0 -14 2 -25 4 -25 2 0 6 11 8 25 3 14 1 25 -3 25 -5 0 -9
-11 -9 -25z"/>
<path d="M972 425 c0 -16 2 -22 5 -12 2 9 2 23 0 30 -3 6 -5 -1 -5 -18z"/>
<path d="M1062 425 c6 -13 15 -22 19 -19 9 5 -11 44 -23 44 -4 0 -3 -11 4 -25z"/>
<path d="M1120 444 c0 -5 7 -18 15 -28 8 -11 15 -16 15 -10 0 5 -7 18 -15 28
-8 11 -15 16 -15 10z"/>
<path d="M1475 425 c0 -14 3 -25 8 -25 4 0 7 11 7 25 0 14 -3 25 -7 25 -5 0
-8 -11 -8 -25z"/>
<path d="M1512 425 c6 -14 13 -24 14 -22 6 6 -9 47 -17 47 -5 0 -3 -11 3 -25z"/>
<path d="M1541 444 c1 -21 16 -47 21 -38 4 5 0 18 -8 29 -8 10 -14 15 -13 9z"/>
<path d="M830 426 c0 -8 4 -17 9 -20 5 -4 7 3 4 14 -6 23 -13 26 -13 6z"/>
<path d="M1004 420 c1 -8 10 -16 21 -17 15 -1 15 0 3 3 -9 3 -19 11 -21 17 -2
7 -3 5 -3 -3z"/>
<path d="M1168 423 c7 -3 16 -2 19 1 4 3 -2 6 -13 5 -11 0 -14 -3 -6 -6z"/>
<path d="M1338 423 c7 -3 16 -2 19 1 4 3 -2 6 -13 5 -11 0 -14 -3 -6 -6z"/>
</g>
</svg>
